<svg width="48" height="48" fill="none" xmlns="http://www.w3.org/2000/svg"><path fill-rule="evenodd" clip-rule="evenodd" d="M30.56 3.55c.37.45.55 1.06.93 2.28l8.12 26.68a33.8 33.8 0 0 0-9.71-3.29l-5.3-17.87a.69.69 0 0 0-1.32 0l-5.22 17.86a33.8 33.8 0 0 0-9.75 3.3l8.16-26.68c.37-1.22.55-1.83.92-2.28a3 3 0 0 1 1.22-.9c.53-.22 1.17-.22 2.45-.22h5.82c1.28 0 1.92 0 2.46.22.47.19.9.5 1.21.9Z" fill="url(#a)"/><path fill-rule="evenodd" clip-rule="evenodd" d="M31.54 33.78c-1.34 1.14-4.02 1.92-7.1 1.92-3.77 0-6.94-1.17-7.78-2.75-.3.9-.36 1.94-.36 2.6 0 0-.2 3.26 2.06 5.52 0-1.17.95-2.13 2.13-2.13 2.01 0 2.01 1.76 2.01 3.19v.12a5.2 5.2 0 0 0 3.2 4.8 4.36 4.36 0 0 1-.44-1.9c0-2.07 1.22-2.84 2.62-3.73 1.13-.72 2.37-1.5 3.23-3.09a5.82 5.82 0 0 0 .43-4.55Z" fill="#FF5D01"/><path fill-rule="evenodd" clip-rule="evenodd" d="M31.54 33.78c-1.34 1.14-4.02 1.92-7.1 1.92-3.77 0-6.94-1.17-7.78-2.75-.3.9-.36 1.94-.36 2.6 0 0-.2 3.26 2.06 5.52 0-1.17.95-2.13 2.13-2.13 2.01 0 2.01 1.76 2.01 3.19v.12a5.2 5.2 0 0 0 3.2 4.8 4.36 4.36 0 0 1-.44-1.9c0-2.07 1.22-2.84 2.62-3.73 1.13-.72 2.37-1.5 3.23-3.09a5.82 5.82 0 0 0 .43-4.55Z" fill="url(#b)"/><defs><linearGradient id="a" x1="33.11" y1="1.02" x2="23.96" y2="32.51" gradientUnits="userSpaceOnUse"><stop stop-color="#000014"/><stop offset="1" stop-color="#150426"/></linearGradient><linearGradient id="b" x1="37.56" y1="24.47" x2="29.64" y2="41.06" gradientUnits="userSpaceOnUse"><stop stop-color="#FF1639"/><stop offset="1" stop-color="#FF1639" stop-opacity="0"/></linearGradient></defs></svg>
